<svg version="1" xmlns="http://www.w3.org/2000/svg" width="706.667" height="706.667" viewBox="0 0 530.000000 530.000000"><path d="M369 156.6v31.9l38.5 38.5c21.2 21.2 38.5 38.8 38.5 39.2 0 .3-17.3 18-38.5 39.1L369 343.8v31.6c0 17.4.1 31.6.3 31.6.6 0 140.7-140.1 140.7-140.6 0-.4-31.7-32.4-70.5-71.2L369 124.6v32zM89.8 195.8c-38.4 38.3-70 70-70.3 70.3-.5.6 138.5 140.1 140.2 140.6.5.2.8-13.6.8-31.1v-31.3l-38.8-38.9-38.8-38.8 38.8-38.8 38.8-38.8v-31.5c0-17.3-.2-31.5-.5-31.5s-31.9 31.4-70.2 69.8zM266.8 198.2c-38.8 39.2-75.7 76.5-81.9 82.8l-11.4 11.5 30.3.3c16.6.1 30.2.5 30.2.8 0 .3-2.9 8.3-6.4 17.7-3.6 9.5-10.4 27.8-15.2 40.7-4.7 12.9-11.3 30.5-14.6 39-3.2 8.5-6 16.2-6.3 17-.2.8-1.1 3.5-1.9 5.9-.9 2.4-1.6 4.6-1.6 4.9 0 .3 7.1-6.4 15.8-15 8.6-8.6 24.5-24.4 35.3-35 73.8-72.6 116.8-115.2 116.4-115.7-.1-.3-13.6-.6-29.9-.5-16.3 0-29.6-.3-29.6-.6 0-.9 19.8-59.8 21-62.5.9-2 5.4-15.6 5.5-16.5 0-.3.5-1.9 1.2-3.5 2.2-6 2.6-7 2.7-7.5.7-3.1 11.1-32.8 11.9-33.8.6-.7.6-1.2 0-1.2-.5 0-32.7 32.1-71.5 71.2z"/></svg>